<svg width="263" height="221" viewBox="0 0 263 221" fill="none" xmlns="http://www.w3.org/2000/svg">
<rect x="1.33398" y="0.343506" width="260.521" height="219.854" rx="38.125" fill="#6C5BD4"/>
<path d="M1.33398 174.614L3.74621 171.76C6.15844 168.906 10.9829 163.198 15.8074 162.317C20.6318 161.435 25.4563 165.381 30.2807 162.847C35.1052 160.313 39.9297 151.3 44.7541 154.063C49.5786 156.825 54.403 171.363 59.2275 173.745C64.052 176.127 68.8764 166.353 73.7009 165.772C78.5254 165.192 83.3498 173.805 88.1743 174.746C92.9987 175.687 97.8232 168.957 102.648 170.237C107.472 171.518 112.297 180.808 117.121 184.843C121.945 188.877 126.77 187.656 131.594 181.014C136.419 174.372 141.243 162.309 146.068 160.678C150.892 159.047 155.717 167.848 160.541 166.271C165.366 164.694 170.19 152.739 175.015 147.018C179.839 141.297 184.663 141.809 189.488 145.296C194.312 148.784 199.137 155.247 203.961 161.196C208.786 167.145 213.61 172.581 218.435 166.208C223.259 159.835 228.084 141.654 232.908 139.17C237.733 136.686 242.557 149.899 247.381 158.632C252.206 167.365 257.03 171.617 259.443 173.743L261.855 175.869" stroke="white" stroke-width="2.54167"/>
<g clip-path="url(#clip0_1115_89)">
<path d="M164.503 101.68C164.358 102.012 163.868 102.237 163.323 102.222C162.778 102.206 162.322 101.955 162.224 101.617L159.826 93.3066C159.185 91.0869 154.31 90.823 153.08 92.9413L150.621 97.175C150.452 97.4658 150.013 97.6591 149.523 97.6591H142.954C142.465 97.6591 142.028 97.4674 141.858 97.1784L141.596 96.7342C140.419 94.7395 135.896 94.8384 134.942 96.8797L131.867 103.455C131.721 103.769 131.264 103.984 130.746 103.984C130.227 103.984 129.771 103.769 129.624 103.455L127.654 99.2463C127.214 98.3051 125.844 97.6591 124.289 97.6591H121.786C121.252 97.6591 120.786 97.4311 120.653 97.1049L116.086 85.8951C115.181 83.6746 110.181 83.6793 109.287 85.9015L92.8108 126.845C92.6743 127.184 92.1793 127.417 91.6255 127.401C91.0716 127.386 90.611 127.127 90.5226 126.781L76.5247 72.1007C75.9224 69.7481 70.6636 69.574 69.6746 71.874L58.822 97.1143C58.6837 97.4359 58.2212 97.6591 57.6932 97.6591H51.0154C49.3443 97.6591 47.9051 98.4029 47.5756 99.4367L45.0166 107.466C44.9043 107.818 44.4062 108.068 43.8369 108.058C43.2676 108.048 42.7927 107.78 42.7122 107.424L38.2397 87.6461C37.7279 85.3827 32.7776 85.034 31.4875 87.1705L25.441 97.1839C25.2682 97.47 24.8334 97.6591 24.3481 97.6591H3.08858C2.11968 97.6591 1.33423 98.1548 1.33423 98.7662C1.33423 99.3777 2.11968 99.8734 3.08858 99.8734H25.154C26.6098 99.8734 27.9144 99.3061 28.4328 98.4476L33.1548 90.6276C33.3447 90.3131 33.8475 90.1195 34.3775 90.1569C34.9074 90.1942 35.3302 90.453 35.4056 90.7861L40.2006 111.991C40.7576 114.454 46.3363 114.554 47.1139 112.115L50.8266 100.466C50.9364 100.121 51.4161 99.8734 51.9732 99.8734H58.5877C60.1716 99.8734 61.5592 99.2037 61.974 98.239L71.6418 75.7543C71.786 75.4188 72.2817 75.1923 72.8318 75.2105C73.3819 75.2287 73.8373 75.4867 73.9251 75.8299L87.9585 130.649C88.5658 133.021 93.8858 133.17 94.823 130.841L111.561 89.2459C111.693 88.9191 112.158 88.69 112.693 88.6895C113.227 88.689 113.694 88.9172 113.827 89.2438L117.481 98.2106C117.88 99.1892 119.278 99.8734 120.879 99.8734H123.415C123.934 99.8734 124.39 100.089 124.537 100.402L127.381 106.48C128.371 108.597 133.122 108.596 134.111 106.48L137.443 99.354C137.565 99.0936 137.904 98.8964 138.325 98.8406C138.746 98.7848 139.181 98.8794 139.459 99.0869C140.114 99.5765 141.088 99.8734 142.141 99.8734H150.339C151.812 99.8734 153.127 99.2934 153.634 98.4211L154.895 96.2494C155.077 95.9367 155.568 95.7395 156.093 95.768C156.619 95.7965 157.049 96.0435 157.144 96.3711L159.69 105.193C160.359 107.509 165.534 107.654 166.525 105.384L177.493 80.2648C177.639 79.9306 178.134 79.7055 178.683 79.7238C179.231 79.7422 179.686 79.999 179.775 80.341L186.302 105.374C186.902 107.673 191.997 107.903 193.11 105.682L195.528 100.753C195.86 100.24 196.653 99.8992 197.543 99.8992H260.101C261.07 99.8992 261.855 99.4037 261.855 98.7925C261.855 98.1813 261.07 97.6858 260.101 97.6858H194.744C193.996 97.6858 193.33 97.9851 193.086 98.4312L192.282 99.899L192.282 99.8992L192.282 99.8994L191.983 100.489H191.978L191.924 100.606L191.796 100.858C191.777 100.896 191.763 100.933 191.754 100.97L191.239 102.07C191.076 102.396 190.58 102.608 190.04 102.584C189.501 102.56 189.058 102.305 188.97 101.968L182.371 76.6623C181.76 74.319 176.526 74.1441 175.527 76.4336L164.503 101.68Z" fill="white"/>
</g>
<path d="M95.5282 37.5935V25.6273L92.7832 27.3048V24.6005L95.5282 22.9535H98.0292V37.5935H95.5282ZM101.496 37.5732V35.4382L107.758 29.8567C108.246 29.4229 108.585 29.0128 108.775 28.6265C108.965 28.2402 109.06 27.8674 109.06 27.5082C109.06 27.0202 108.955 26.5864 108.744 26.2068C108.534 25.8205 108.243 25.5155 107.87 25.2918C107.504 25.0682 107.08 24.9563 106.599 24.9563C106.091 24.9563 105.64 25.0749 105.247 25.3122C104.861 25.5426 104.559 25.851 104.342 26.2373C104.125 26.6237 104.024 27.0405 104.037 27.4878H101.516C101.516 26.5118 101.733 25.6612 102.167 24.936C102.607 24.2108 103.21 23.6482 103.976 23.2483C104.749 22.8484 105.64 22.6485 106.65 22.6485C107.585 22.6485 108.426 22.8586 109.171 23.2788C109.917 23.6923 110.503 24.2684 110.93 25.0072C111.357 25.7392 111.571 26.583 111.571 27.5387C111.571 28.2368 111.476 28.8231 111.286 29.2975C111.096 29.7719 110.812 30.2091 110.432 30.609C110.059 31.0089 109.595 31.4528 109.039 31.9408L104.596 35.8753L104.373 35.2653H111.571V37.5732H101.496ZM119.281 37.8985C118.244 37.8985 117.329 37.6782 116.536 37.2377C115.743 36.7903 115.123 36.1702 114.676 35.3772C114.235 34.5842 114.015 33.6692 114.015 32.6322V27.9148C114.015 26.8778 114.235 25.9628 114.676 25.1698C115.123 24.3768 115.743 23.7601 116.536 23.3195C117.329 22.8722 118.244 22.6485 119.281 22.6485C120.318 22.6485 121.23 22.8722 122.016 23.3195C122.809 23.7601 123.429 24.3768 123.877 25.1698C124.324 25.9628 124.548 26.8778 124.548 27.9148V32.6322C124.548 33.6692 124.324 34.5842 123.877 35.3772C123.429 36.1702 122.809 36.7903 122.016 37.2377C121.23 37.6782 120.318 37.8985 119.281 37.8985ZM119.281 35.5703C119.796 35.5703 120.264 35.4483 120.684 35.2043C121.104 34.9536 121.437 34.6215 121.681 34.208C121.925 33.7878 122.047 33.3201 122.047 32.805V27.7318C122.047 27.2099 121.925 26.7423 121.681 26.3288C121.437 25.9086 121.104 25.5765 120.684 25.3325C120.264 25.0817 119.796 24.9563 119.281 24.9563C118.766 24.9563 118.298 25.0817 117.878 25.3325C117.458 25.5765 117.126 25.9086 116.882 26.3288C116.638 26.7423 116.516 27.2099 116.516 27.7318V32.805C116.516 33.3201 116.638 33.7878 116.882 34.208C117.126 34.6215 117.458 34.9536 117.878 35.2043C118.298 35.4483 118.766 35.5703 119.281 35.5703ZM136.4 37.8985C135.39 37.8985 134.536 37.6443 133.838 37.136C133.14 36.6209 132.611 35.9262 132.252 35.0518C131.893 34.1707 131.713 33.1846 131.713 32.0933C131.713 30.9818 131.893 29.9922 132.252 29.1247C132.618 28.2503 133.153 27.5624 133.858 27.0608C134.563 26.5593 135.431 26.3085 136.461 26.3085C137.464 26.3085 138.325 26.5627 139.043 27.071C139.762 27.5793 140.311 28.2707 140.69 29.145C141.076 30.0193 141.27 31.0021 141.27 32.0933C141.27 33.1913 141.076 34.1775 140.69 35.0518C140.304 35.9262 139.748 36.6209 139.023 37.136C138.298 37.6443 137.423 37.8985 136.4 37.8985ZM131.459 37.5935V22.9535H132.963V29.328H132.801V37.5935H131.459ZM136.247 36.5057C137.013 36.5057 137.65 36.3125 138.159 35.9262C138.667 35.5398 139.047 35.0146 139.297 34.3503C139.555 33.6793 139.684 32.927 139.684 32.0933C139.684 31.2664 139.558 30.5209 139.307 29.8567C139.057 29.1924 138.674 28.6672 138.159 28.2808C137.65 27.8945 137.003 27.7013 136.217 27.7013C135.451 27.7013 134.814 27.8877 134.305 28.2605C133.804 28.6333 133.428 29.1518 133.177 29.816C132.926 30.4734 132.801 31.2326 132.801 32.0933C132.801 32.9406 132.926 33.6997 133.177 34.3707C133.428 35.0349 133.807 35.5568 134.316 35.9363C134.824 36.3159 135.468 36.5057 136.247 36.5057ZM148.433 37.8985C147.423 37.8985 146.569 37.6443 145.871 37.136C145.173 36.6209 144.644 35.9262 144.285 35.0518C143.926 34.1707 143.746 33.1846 143.746 32.0933C143.746 30.9818 143.926 29.9922 144.285 29.1247C144.651 28.2503 145.186 27.5624 145.891 27.0608C146.596 26.5593 147.464 26.3085 148.494 26.3085C149.497 26.3085 150.358 26.5627 151.076 27.071C151.795 27.5793 152.344 28.2707 152.723 29.145C153.11 30.0193 153.303 31.0021 153.303 32.0933C153.303 33.1913 153.11 34.1775 152.723 35.0518C152.337 35.9262 151.781 36.6209 151.056 37.136C150.331 37.6443 149.456 37.8985 148.433 37.8985ZM143.492 42.4735V26.6135H144.834V34.879H144.997V42.4735H143.492ZM148.281 36.5057C149.046 36.5057 149.684 36.3125 150.192 35.9262C150.7 35.5398 151.08 35.0146 151.331 34.3503C151.588 33.6793 151.717 32.927 151.717 32.0933C151.717 31.2664 151.591 30.5209 151.341 29.8567C151.09 29.1924 150.707 28.6672 150.192 28.2808C149.684 27.8945 149.036 27.7013 148.25 27.7013C147.484 27.7013 146.847 27.8877 146.339 28.2605C145.837 28.6333 145.461 29.1518 145.21 29.816C144.959 30.4734 144.834 31.2326 144.834 32.0933C144.834 32.9406 144.959 33.6997 145.21 34.3707C145.461 35.0349 145.841 35.5568 146.349 35.9363C146.857 36.3159 147.501 36.5057 148.281 36.5057ZM168.63 37.5935L168.64 30.3853C168.64 29.5381 168.403 28.8739 167.929 28.3927C167.461 27.9047 166.864 27.6607 166.139 27.6607C165.726 27.6607 165.323 27.7556 164.929 27.9453C164.536 28.1351 164.211 28.4401 163.953 28.8603C163.703 29.2806 163.577 29.8296 163.577 30.5073L162.693 30.2532C162.672 29.4669 162.825 28.779 163.15 28.1893C163.482 27.5997 163.936 27.1422 164.513 26.8168C165.095 26.4847 165.753 26.3187 166.485 26.3187C167.59 26.3187 168.474 26.6609 169.138 27.3455C169.803 28.0233 170.135 28.9417 170.135 30.1007L170.125 37.5935H168.63ZM155.525 37.5935V26.6135H156.867V29.3178H157.03V37.5935H155.525ZM162.093 37.5935L162.103 30.487C162.103 29.6127 161.869 28.9247 161.402 28.4232C160.941 27.9148 160.331 27.6607 159.572 27.6607C158.812 27.6607 158.199 27.9216 157.731 28.4435C157.264 28.9586 157.03 29.6466 157.03 30.5073L156.135 30.0193C156.135 29.3144 156.301 28.6841 156.633 28.1283C156.966 27.5658 157.42 27.1252 157.996 26.8067C158.572 26.4813 159.226 26.3187 159.958 26.3187C160.656 26.3187 161.276 26.4678 161.818 26.766C162.367 27.0642 162.798 27.498 163.11 28.0673C163.421 28.6367 163.577 29.328 163.577 30.1413L163.567 37.5935H162.093Z" fill="white"/>
<defs>
<clipPath id="clip0_1115_89">
<rect width="260.521" height="91.5" fill="white" transform="matrix(1 0 0 -1 1.33398 128.698)"/>
</clipPath>
</defs>
</svg>
